<?xml version="1.0" encoding="UTF-8"?>
<svg width="450px" height="350px" viewBox="0 0 450 350" version="1.1" xmlns="http://www.w3.org/2000/svg" xmlns:xlink="http://www.w3.org/1999/xlink">
    <title>Group 2</title>
    <defs>
        <circle id="path-1" cx="231" cy="161" r="100"></circle>
        <filter x="-0.8%" y="-0.8%" width="101.5%" height="101.5%" filterUnits="objectBoundingBox" id="filter-2">
            <feGaussianBlur stdDeviation="1" in="SourceAlpha" result="shadowBlurInner1"></feGaussianBlur>
            <feOffset dx="0" dy="1" in="shadowBlurInner1" result="shadowOffsetInner1"></feOffset>
            <feComposite in="shadowOffsetInner1" in2="SourceAlpha" operator="arithmetic" k2="-1" k3="1" result="shadowInnerInner1"></feComposite>
            <feColorMatrix values="0 0 0 0 0   0 0 0 0 0   0 0 0 0 0  0 0 0 0.5 0" type="matrix" in="shadowInnerInner1"></feColorMatrix>
        </filter>
    </defs>
    <g id="Page-1" stroke="none" stroke-width="1" fill="none" fill-rule="evenodd">
        <g id="Extra-Large-Copy" transform="translate(-1196.000000, -141.000000)">
            <g id="Group-2" transform="translate(1196.000000, 141.000000)">
                <g id="Group-6" fill="#3D5648">
                    <rect id="Rectangle" x="0" y="0" width="450" height="350" rx="24"></rect>
                </g>
                <g id="Oval-Copy" transform="translate(106.000000, 40.000000)">
                    <g id="path-4-link" fill="#FFFFFF">
                        <circle id="path-4" cx="125" cy="125" r="125"></circle>
                    </g>
                    <g id="path-4-link" fill="#FFFFFF" fill-rule="nonzero">
                        <circle id="path-4" cx="125" cy="125" r="125"></circle>
                    </g>
                    <circle id="Oval" stroke="#FFFFFF" stroke-width="29" cx="125" cy="125" r="118.372943"></circle>
                </g>
                <g id="Group-Copy" transform="translate(144.000000, 108.000000)" fill-rule="nonzero">
                    <path d="M87.9038976,81 L100.852959,59.7430476 L102.347082,78.8976642 L107.067643,78.8976642 L104.317591,46 L89.0299031,71.2864294 L80.5632088,46.7202445 L69,78.8976642 L74.0670242,78.8976642 L80.7364407,59.7430476 L87.9038976,81 Z M121.900598,79.3259178 C124.094865,79.3259178 126.216952,78.5213197 128.266859,76.9121248 L127.985358,78.8976642 L132.770881,78.8976642 L135.282738,60.5606228 L130.497215,60.5606228 L130.172406,62.9744158 C129.089709,61.9232479 128.028666,61.1835372 126.989276,60.7552836 C125.964323,60.3270301 124.722829,60.112903 123.264797,60.112903 C120.1755,60.112903 117.641988,61.0797179 115.66426,63.0133483 C113.715405,64.9469781 112.740978,67.4256583 112.740978,70.449388 C112.740978,73.0708194 113.5927,75.2055986 115.296144,76.8537266 C116.999587,78.501854 119.201072,79.3259178 121.900598,79.3259178 Z M122.961641,75.7636262 C121.373685,75.7636262 120.074449,75.2510197 119.06393,74.2258066 C118.053413,73.2005935 117.548154,71.8833889 117.548154,70.2741934 C117.548154,68.4314052 118.154465,66.8741193 119.367086,65.6023358 C120.579707,64.34353 122.081047,63.7141265 123.871107,63.7141265 C125.516807,63.7141265 126.859352,64.2267336 127.898742,65.2519467 C128.938131,66.2641826 129.457826,67.5813867 129.457826,69.2035593 C129.457826,70.9814608 128.815426,72.5257695 127.530625,73.836485 C126.245823,75.1212456 124.722829,75.7636262 122.961641,75.7636262 Z M144.572283,78.8976642 L146.542792,64.5511679 L150.960198,64.5511679 L151.501546,60.5606228 L147.084141,60.5606228 L148.253454,52.053949 L143.467931,52.053949 L142.298618,60.5606228 L139.591874,60.5606228 L139.050526,64.5511679 L141.757269,64.5511679 L139.78676,78.8976642 L144.572283,78.8976642 Z M163.671066,79.4816461 C165.663229,79.4816461 167.323366,79.176678 168.651474,78.5667408 C169.965148,77.9697812 171.24273,76.9186133 172.484223,75.4132371 L168.911322,73.6418242 C167.713136,75.1472004 165.995256,75.8998888 163.757682,75.8998888 C162.126418,75.8998888 160.783873,75.4651467 159.730047,74.5956619 C158.690658,73.7261772 158.170963,72.6166111 158.170963,71.2669631 L173.935038,71.2669631 C173.978346,70.5661843 174,70.0600669 174,69.7486098 C174,66.7638115 173.112188,64.3824619 171.336564,62.6045604 C169.589812,60.8396366 167.20066,59.9571747 164.169106,59.9571747 C161.036502,59.9571747 158.445246,60.9369667 156.395339,62.8965519 C154.330996,64.8691136 153.298824,67.3218391 153.298824,70.2547272 C153.298824,73.0578417 154.237162,75.2964407 156.113838,76.970523 C157.990513,78.6446052 160.509589,79.4816461 163.671066,79.4816461 Z M169.149515,67.8020023 L158.43081,67.8020023 C159.282532,64.9729329 161.1159,63.5583982 163.930913,63.5583982 C166.904722,63.5583982 168.644257,64.9729329 169.149515,67.8020023 L169.149515,67.8020023 Z" id="Mate" fill="#1D8348"></path>
                    <path d="M5.1810058,53 C5.68092781,53 6.10131653,52.6718899 6.44217196,52.0156703 C10.3052031,45.0023214 16.406519,36.5124781 24.7461209,26.5461402 C29.1317976,21.2963825 33.4720259,16.538789 37.7668079,12.2733603 C34.8581725,16.7438577 31.2564647,22.7626233 26.9616828,30.3296577 C22.6669015,37.8966915 20.4740638,42.1108532 20.3831684,42.9721415 L20.3831684,42.9721415 L20.3831684,43.1259432 C20.3831684,43.8026694 20.7921957,44.4127488 21.610249,44.9561807 C22.4283029,45.4996131 23.2065895,45.7713287 23.9451101,45.7713287 C24.6836307,45.7713287 25.2460429,45.6277807 25.632346,45.3406846 C26.4983467,44.6957438 28.1545096,43.2717517 30.6008351,41.0687094 L31.0044631,40.7046302 C35.1784271,36.9337351 41.5000864,31.0453471 49.9694403,23.0394658 C56.2411849,17.0924745 60.1042154,13.442252 61.5585331,12.0887988 C54.6732489,20.7221897 49.0150446,28.2687174 44.5839209,34.7283808 C41.6298384,39.0758368 40.1527972,41.8852772 40.1527972,43.1567035 C40.1527972,44.2230605 40.5959094,45.171503 41.4821345,46.002031 C42.368359,46.8325595 43.5954396,47.2478232 45.1633756,47.2478232 C46.7313115,47.2478232 49.1684295,46.1045656 52.4747295,43.8180499 C55.7810295,41.5315342 58.1840619,39.506481 59.6838267,37.7428904 C60.2519199,37.0661636 60.5359662,36.4817177 60.5359662,35.9895529 L60.5359662,35.9895529 L60.2632813,34.8206618 C60.2632813,34.7386339 60.2462388,34.5797059 60.2121532,34.3438769 C60.1780676,34.1080478 60.143982,33.8824724 60.1098964,33.66715 C60.0758108,33.4518282 60.0133206,33.0775779 59.9224259,32.5443991 C59.7179123,31.6215902 59.4225045,31.3652544 59.0362014,31.7753918 C58.9680302,31.8574192 58.8884969,31.9394466 58.7976022,32.021474 C58.7067074,32.1035013 58.5590029,32.2675567 58.3544899,32.5136388 C53.6279578,37.2097116 50.0716971,39.7833235 47.6857072,40.2344749 C48.8673407,37.8556781 51.9918506,33.2826467 57.0592382,26.5153799 C62.1266257,19.7481137 68.3529226,11.9349972 75.7381288,3.0760303 C75.8744712,2.93248225 75.9426424,2.74792023 75.9426424,2.5223448 C75.9426424,2.29676937 75.811981,2.07632077 75.5506583,1.86099841 C75.2893355,1.64567604 74.9768846,1.50725481 74.613305,1.44573414 C73.3180533,1.44573414 71.965993,1.26117269 70.5571224,0.892048638 C69.7617926,0.686980486 69.1028053,0.584445837 68.5801597,0.584445837 C67.284908,0.584445837 63.3082586,3.49642081 56.6502115,9.32037134 C51.5373763,13.8113754 46.6574593,18.3126332 42.0104605,22.824144 C37.3634617,27.3356548 33.7901585,30.9551169 31.2905497,33.6825305 C33.9037768,29.1300057 39.016612,20.7632037 46.6290547,8.58212439 C48.9014263,4.91139519 50.0376115,2.95298895 50.0376115,2.70690682 C50.0376115,2.31727608 49.6229038,1.9686593 48.7934885,1.6610565 C47.9640731,1.3534537 47.1119336,1.19965201 46.2370712,1.19965201 C45.3622081,1.19965201 44.7770724,1.36370676 44.4816641,1.69181684 C44.4134929,1.75333751 44.3453223,1.78409785 44.2771511,1.78409785 C44.2089798,1.78409785 44.0385518,1.71745036 43.7658676,1.58415594 C43.4931828,1.45086096 43.2091365,1.38421346 42.9137281,1.38421346 C41.0503837,1.38421346 36.8578592,4.82936724 30.336154,11.7196748 C25.6096225,16.7028437 21.0421564,21.8859545 16.6337562,27.2690073 C12.2253566,32.65206 8.350964,37.6147223 5.0105784,42.1569934 C1.6701928,46.6992645 0,49.3395239 0,50.0777714 C0,51.3081832 0.999843391,52.1694715 2.99952954,52.6616363 C3.95392588,52.8872117 4.68108442,53 5.1810058,53 Z M69.8413259,47.3708646 C74.1815549,47.3708646 78.783106,45.5867673 83.6459799,42.0185722 C84.3958626,41.4648867 84.8503369,40.9983554 85.0094029,40.6189782 C85.1684688,40.2396011 85.2480021,39.4552134 85.2480021,38.2658156 C85.2480021,37.0764172 84.9525937,36.4817177 84.361777,36.4817177 C84.1799875,36.4817177 83.9129837,36.5945054 83.5607662,36.8200809 C83.2085487,37.0456569 82.3677713,37.6454826 81.0384345,38.6195586 C79.7090971,39.5936352 78.2150134,40.5523313 76.5561821,41.495647 C74.601943,42.603018 72.659066,43.1567035 70.7275504,43.1567035 C67.7052967,43.1567035 66.1941698,42.3569353 66.1941698,40.7573995 C66.1941698,39.8550978 68.5915218,38.1940413 73.3862245,35.7742311 C73.6361858,35.6511898 74.1361072,35.4717546 74.8859899,35.2359255 C75.635872,35.0000964 76.3062214,34.6566065 76.8970381,34.2054556 C77.4878542,33.7543042 77.7832626,33.3903076 77.7832626,33.1134645 C77.7832626,32.8366221 77.6128352,32.4572449 77.2719792,31.9753338 C76.9311237,31.493422 76.6129918,31.1806924 76.3175835,31.0371443 C76.181241,30.9961309 75.8915137,30.9756236 75.4484014,30.9756236 C75.0052892,30.9756236 74.2270019,31.1448052 73.1135403,31.4831689 C72.0000786,31.8215321 71.1763437,31.9907136 70.6423367,31.9907136 C70.1083291,31.9907136 69.8413259,31.9086863 69.8413259,31.7446315 C69.8413259,31.2524667 70.5684844,30.5039661 72.0228021,29.4991292 C73.4771192,28.4942928 74.7041998,27.7355386 75.7040432,27.2228671 C76.7038866,26.7101955 77.6128352,26.3308184 78.4308885,26.0847357 C78.3399938,26.4128458 78.2945461,26.7512089 78.2945461,27.0998257 C78.2945461,27.4484425 78.3740794,27.7304118 78.5331453,27.9457341 C78.6922113,28.1610565 79.0217053,28.2687174 79.5216266,28.2687174 C81.0668391,28.2687174 82.4473045,27.7560459 83.663023,26.7307022 C84.8787415,25.7053586 85.4866007,24.5159602 85.4866007,23.1625071 C85.4866007,22.5678082 85.1002976,22.1064037 84.3276914,21.7782937 C83.5550852,21.4501836 82.793841,21.2861288 82.0439583,21.2861288 C78.9080864,21.2861288 75.3404636,22.2602048 71.3410907,24.2083574 C69.5459175,25.0696457 68.0291096,26.1718899 66.7906676,27.51509 C65.5522256,28.8582895 64.9330043,30.1297158 64.9330043,31.3293672 C64.9330043,32.5290193 65.0579847,33.4005612 65.3079453,33.9439931 C65.557906,34.4874249 66.1146372,34.9334495 66.9781381,35.2820663 C62.6379091,36.7380535 60.467795,38.8810212 60.467795,41.7109694 C60.467795,43.8641901 61.7403226,45.4637259 64.2853784,46.5095763 C65.6715249,47.0837685 67.5235072,47.3708646 69.8413259,47.3708646 Z M105.068759,47.2478232 C106.898018,47.2478232 108.931789,46.4275489 111.170076,44.7869991 C113.408361,43.1464499 114.856998,41.7417291 115.515985,40.572838 C115.652327,40.3267553 115.720499,39.8858581 115.720499,39.2501452 C115.720499,38.6144318 115.675051,37.9992262 115.584156,37.4045267 C115.493261,36.8098278 115.231939,36.5124781 114.800188,36.5124781 C114.527504,36.5124781 114.32299,36.5637451 114.186648,36.6662798 C114.050306,36.7688138 113.635598,37.1686976 112.942524,37.8659312 C112.249452,38.5631647 111.539335,39.2450184 110.812177,39.9114916 C110.085018,40.5779648 109.255602,41.2034241 108.32393,41.7878699 C107.392258,42.3723158 106.585566,42.6645387 105.903855,42.6645387 C105.222144,42.6645387 104.881288,42.1005995 104.881288,40.9727218 C104.881288,40.6035984 104.915373,40.3165023 104.983545,40.1114335 C105.324401,38.450377 106.079964,36.4458306 107.250235,34.0977942 C108.420506,31.7497583 109.488521,29.8221124 110.454278,28.3148576 C111.420036,26.8076028 112.050619,25.920681 112.346027,25.6540916 C112.641436,25.3875022 112.78914,24.9671117 112.78914,24.3929195 C112.78914,23.3265624 111.925639,22.7933836 110.198637,22.7933836 C109.448754,22.7933836 108.886342,22.8907915 108.511401,23.0856066 C108.13646,23.2804216 107.676304,23.746953 107.130935,24.4852005 C106.926422,23.931515 106.437862,23.4701105 105.665256,23.1009864 C104.89265,22.731863 103.892807,22.5473009 102.665727,22.5473009 C99.4844069,22.5473009 96.0076789,23.8802474 92.2355431,26.5461402 C90.44037,27.817566 88.7929007,29.2274135 87.293136,30.7756817 C85.7933712,32.3239505 84.5833331,34.0362741 83.663023,35.9126524 C82.7427129,37.7890306 82.2825576,39.6551559 82.2825576,41.5110269 C82.2825576,43.3668985 82.9074599,44.8177594 84.157264,45.8636097 C85.1343832,46.7043913 86.3955494,47.1247824 87.9407618,47.1247824 C89.4859737,47.1247824 91.4799794,46.3557746 93.9227784,44.8177594 C96.3655775,43.2797443 98.5300112,41.403366 100.416079,39.1886246 C99.9616048,40.1114335 99.7343676,41.1829174 99.7343676,42.4030761 C99.7343676,43.6232342 100.166118,44.735732 101.029619,45.7405684 C101.89312,46.7454053 103.2395,47.2478232 105.068759,47.2478232 Z M88.3497885,42.1416135 C87.8953142,42.1416135 87.668077,41.7827431 87.668077,41.0650028 C87.668077,40.3472626 88.2872983,39.0143162 89.5257403,37.0661636 C90.7641829,35.118011 92.1219242,33.4467014 93.5989655,32.0522343 C97.757405,28.1559297 101.779501,26.2077771 105.665256,26.2077771 C102.574831,30.0425616 100.506974,32.5546528 99.4616828,33.7440511 C98.5072871,34.8104082 96.5757715,36.4765909 93.6671367,38.7426 C90.7585019,41.008609 88.9860523,42.1416135 88.3497885,42.1416135 Z M120.458392,47.3708646 C122.594421,47.3708646 124.85543,46.8530662 127.24142,45.8174695 C129.627409,44.7818723 131.7748,43.2079705 133.683592,41.0957632 C134.001724,40.7266397 134.16079,40.1421939 134.16079,39.3424257 L134.16079,39.3424257 L134.16079,38.7272201 C134.16079,37.2302183 133.888105,36.4817177 133.342736,36.4817177 C132.797367,36.4817177 131.388497,37.5378217 129.116126,39.650029 C128.252625,40.4497967 127.235739,41.1777906 126.065468,41.8340101 C124.895197,42.4902303 123.798778,42.8183398 122.776211,42.8183398 C121.753644,42.8183398 120.895823,42.5466241 120.20275,42.0031917 C119.509677,41.4597598 119.16314,40.8496805 119.16314,40.1729542 C119.16314,39.4962274 119.248355,38.8246273 119.418782,38.1581541 C119.58921,37.4916809 119.685786,37.0354032 119.708509,36.7893211 C123.344303,33.1596053 127.139163,29.068485 131.093089,24.5159602 C133.592697,21.6449992 135.830983,18.9329656 137.807945,16.3798605 C139.784909,13.8267559 141.477825,11.3249178 142.886695,8.87434731 C144.295565,6.42377625 145,4.62429909 145,3.47591411 C145,2.32752971 144.585292,1.46111459 143.755877,0.876668756 C142.926462,0.292222919 141.966385,0 140.875647,0 C137.330747,0 132.206551,4.28593538 125.503056,12.8578061 C122.52625,16.6515767 119.850533,21.2502417 117.475905,26.6538017 C115.101277,32.0573611 113.913963,36.7585608 113.913963,40.7573995 C113.913963,42.8080867 114.470694,44.4230024 115.584156,45.6021472 C116.697618,46.7812919 118.322364,47.3708646 120.458392,47.3708646 Z M121.106018,29.8067325 C122.446717,26.1154961 123.87263,23.0497194 125.383756,20.609402 C126.894883,18.1690851 129.343363,14.8982397 132.729196,10.7968658 C136.115029,6.69549246 138.205611,4.64480579 139.00094,4.64480579 C139.228177,4.64480579 139.341796,4.79860747 139.341796,5.10621028 C139.341796,6.54169078 136.972849,10.2995747 132.234955,16.3798605 C127.497062,22.4601468 123.787416,26.935771 121.106018,29.8067325 Z" id="Meal" fill="#3D5648"></path>
                </g>
                <g id="Oval" fill="black" fill-opacity="1">
                    <use filter="url(#filter-2)" xlink:href="#path-1"></use>
                </g>
                <path d="M70.6371917,27.6323708 C71.1277829,27.6323708 71.8352259,28.0882472 72.7595207,29 L72.7595207,100.40074 C73.6147906,101.117252 74.3552748,101.650699 74.9809733,102.001081 L77.8011147,102.001332 C78.3283654,101.650954 78.9189458,101.117423 79.5728558,100.40074 L81.6308491,29.7656833 L83.0315145,28.289947 C83.7519947,28.1066246 84.3366636,28.1066246 84.7855213,28.289947 C85.234379,28.4732694 85.8541375,28.9651815 86.6447967,29.7656833 L90.0787577,109.497164 C90.1685141,110.597881 90.1427511,111.707656 90.0014687,112.826489 L90,132 C90,136.418278 86.418278,140 82,140 L72.867,139.999371 L72.7595207,140.087878 L79.5728558,314.265753 C77.7014708,315.581258 76.379015,316.648733 75.6054882,317.46818 C74.8319615,318.287626 73.8833056,319.626085 72.7595207,321.483556 L60.1419675,321.483556 C59.2800144,319.613879 58.3659108,318.27542 57.3996567,317.46818 C56.4334026,316.66094 54.4676394,315.593464 51.5023671,314.265753 L56.5931202,140.087878 C56.5696435,140.058248 56.5462139,140.028671 56.5228315,139.999147 L45,140 C40.581722,140 37,136.418278 37,132 L37,110 C37,109.58143 37.0321456,109.170368 37.0941028,108.769148 L44.5155419,31.4522944 L44.5155419,29 C45.4982225,28.0882472 46.259492,27.6323708 46.7993504,27.6323708 C47.3392088,27.6323708 48.1371432,28.0882472 49.1931534,29 L49.6586501,100.40074 C50.7234529,101.309596 51.5378123,101.764023 52.1017285,101.764023 C52.6656446,101.764023 53.4746321,101.309596 54.528691,100.40074 L56.5931202,29 C57.7475418,28.0882472 58.613358,27.6323708 59.1905688,27.6323708 C59.7677796,27.6323708 60.6064093,28.0882472 61.7064578,29 L61.7064578,100.40074 C62.1624867,101.110678 62.5712063,101.643932 62.9326165,102.000501 L64.7336961,102.001415 C65.099553,101.647104 65.5216543,101.113546 66,100.40074 L68.5136335,29 C69.4387478,28.0882472 70.1466005,27.6323708 70.6371917,27.6323708 Z" id="Combined-Shape" fill="#FFFFFF"></path>
                <path d="M391.365805,307.615961 C394.139449,313.475715 396.241801,317.148995 397.67286,318.635803 C399.733974,320.77721 402.533051,320.8697 404.057115,320.987762 C406.034505,321.140942 410.398377,321.709541 413.783818,318.635803 C415.078081,317.460705 416.690175,314.491181 418.620099,309.72723 L418.620099,195.690396 C419.652283,150.45129 421.204718,116.458003 423.277403,93.7105333 C425.350088,70.9630637 428.690044,51.2629519 433.297271,34.610198 C431.016224,31.0972342 428.500492,29.0265498 425.750076,28.398145 C422.999659,27.7697401 418.526813,28.2437005 412.331538,29.8200262 C409.057844,33.0200504 406.299703,36.3723365 404.057115,39.8768845 C401.814527,43.3814324 399.145368,48.5105228 396.049639,55.2641557 C391.345416,71.347891 388.13568,87.09077 386.420431,102.492793 C384.705182,117.894815 383.664128,140.321761 383.297271,169.773628 C390.408027,174.560162 395.19989,178.509209 397.67286,181.620769 C400.14583,184.73233 401.559009,188.590641 401.912397,193.195702 C399.945365,222.950856 398.532186,242.770295 397.67286,252.654017 C397.298811,256.956222 396.370132,260.562785 396.049639,264.039826 C394.624712,279.498898 393.063434,294.024276 391.365805,307.615961 Z" id="Path-3" fill="#FFFFFF"></path>
            </g>
        </g>
    </g>
</svg>