<?xml version="1.0" encoding="UTF-8"?>
<svg width="320px" height="180px" viewBox="0 0 320 180" version="1.1" xmlns="http://www.w3.org/2000/svg" xmlns:xlink="http://www.w3.org/1999/xlink">
    <title>FewClouds</title>
    <defs>
        <linearGradient x1="45.196464%" y1="100%" x2="65.7391998%" y2="15.7286514%" id="linearGradient-1">
            <stop stop-color="#FA6C21" offset="0%"></stop>
            <stop stop-color="#FFD358" offset="100%"></stop>
        </linearGradient>
        <linearGradient x1="50%" y1="17.7675657%" x2="50%" y2="111.674099%" id="linearGradient-2">
            <stop stop-color="#FFFEFE" stop-opacity="0.511746066" offset="0%"></stop>
            <stop stop-color="#FFFEFE" stop-opacity="0.511746066" offset="45.3193792%"></stop>
            <stop stop-color="#FFFEFE" offset="100%"></stop>
        </linearGradient>
    </defs>
    <g id="Page-1" stroke="none" stroke-width="1" fill="none" fill-rule="evenodd">
        <g id="Extra-Large-Copy-7" transform="translate(-1023.000000, -154.000000)">
            <g id="WeatherAppLogo" transform="translate(934.000000, 52.000000)">
                <g id="FewClouds" transform="translate(89.000000, 102.000000)">
                    <g id="path-3-link" transform="translate(181.166430, 0.000000)" fill="url(#linearGradient-1)" fill-rule="nonzero">
                        <ellipse id="path-3" cx="69.4167852" cy="69.7694524" rx="69.4167852" ry="69.7694524"></ellipse>
                    </g>
                    <g id="Combined-Shape-Copy-3-Copy" transform="translate(0.000000, 14.524496)">
                        <g id="path-6-link" fill="url(#linearGradient-2)" fill-rule="nonzero">
                            <path d="M43.3961734,165.475504 L43.3972237,165.325884 C42.4019307,165.425045 41.3966054,165.475504 40.3825502,165.475504 C18.0798836,165.475504 0,141.067357 0,110.958381 C0,80.8494048 18.0798836,56.4412575 40.3825502,56.4412575 C43.1697439,56.4412575 45.890987,56.8224597 48.519233,57.5483514 C62.4886737,24.170848 103.486353,0 151.886607,0 C208.815756,0 255.503564,33.4399799 260.019165,75.9685954 C261.520515,75.7794284 263.048142,75.6825951 264.596113,75.6825951 C286.898779,75.6825951 304.978663,95.7834223 304.978663,120.579049 C304.978663,145.374677 286.898779,165.475504 264.596113,165.475504 C263.17122,165.475504 261.763564,165.393456 260.376758,165.23338 L260.37704,165.475504 L43.3961734,165.475504 Z" id="path-6"></path>
                        </g>
                        <path d="M151.886607,0.641377924 C180.106916,0.641377924 205.801905,8.88937439 225.041659,22.4062756 C244.359477,35.97802 257.171774,54.8641069 259.420251,76.0406042 C259.443169,76.2564538 259.464968,76.4723319 259.485674,76.6869251 C259.687213,76.6580265 259.888673,76.6308953 260.090035,76.6055241 C261.568137,76.4192863 263.072112,76.323973 264.596113,76.323973 C275.578097,76.323973 285.519098,81.2751764 292.715469,89.2759471 C299.921186,97.2871096 304.375938,108.355026 304.375938,120.579049 C304.375938,132.803073 299.921186,143.870989 292.715469,151.882152 C285.519098,159.882924 275.578097,164.834126 264.596113,164.834126 C263.182007,164.834126 261.785143,164.752064 260.409165,164.591965 L260.409165,164.591965 L43.4100821,164.834126 C42.7405289,164.800787 42.066052,164.811613 41.3873301,164.822939 C41.0534287,164.828511 40.718473,164.834126 40.3825502,164.834126 C29.4103851,164.834126 19.4877908,158.812882 12.3011282,149.110767 C5.06859111,139.346719 0.602724629,125.855846 0.602724629,110.958381 C0.602724629,96.0609144 5.06859111,82.570042 12.3011282,72.8059949 C19.4877908,63.1038792 29.4103851,57.0826354 40.3825502,57.0826354 C43.1178793,57.0826354 45.7884795,57.4567765 48.3678166,58.1691605 C56.0941301,41.0259499 70.0107931,26.5989541 88.2658909,16.4356817 C106.11053,6.50092596 128.101334,0.641377924 151.886607,0.641377924 L151.886607,0.641377924 Z" id="Path" stroke="#FFFEFE"></path>
                    </g>
                </g>
            </g>
        </g>
    </g>
</svg>