<?xml version="1.0" encoding="UTF-8"?>
<svg width="450px" height="450px" viewBox="0 0 450 450" version="1.1" xmlns="http://www.w3.org/2000/svg" xmlns:xlink="http://www.w3.org/1999/xlink">
    <title>Group 5</title>
    <g id="Page-1" stroke="none" stroke-width="1" fill="none" fill-rule="evenodd">
        <g id="Extra-Large-Copy" transform="translate(-374.000000, -449.000000)">
            <g id="Group-5" transform="translate(374.000000, 449.000000)">
                <path d="M30.7666224,-3.05667665e-15 L419.233378,1.24300837e-15 C429.931602,-7.22223659e-16 433.811037,1.11390733 437.722148,3.20559245 C441.63326,5.29727756 444.702722,8.36674045 446.794408,12.2778516 C448.886093,16.1889627 450,20.0683975 450,30.7666224 L450,419.233378 C450,429.931602 448.886093,433.811037 446.794408,437.722148 C444.702722,441.63326 441.63326,444.702722 437.722148,446.794408 C433.811037,448.886093 429.931602,450 419.233378,450 L30.7666224,450 C20.0683975,450 16.1889627,448.886093 12.2778516,446.794408 C8.36674045,444.702722 5.29727756,441.63326 3.20559245,437.722148 C1.11390733,433.811037 1.53527594e-15,429.931602 -2.64234052e-15,419.233378 L8.28672246e-16,30.7666224 C-4.81482439e-16,20.0683975 1.11390733,16.1889627 3.20559245,12.2778516 C5.29727756,8.36674045 8.36674045,5.29727756 12.2778516,3.20559245 C16.1889627,1.11390733 20.0683975,1.77601716e-15 30.7666224,-3.05667665e-15 Z" id="Rectangle-Copy-3" fill="#1A1C1F"></path>
                <g id="The-MovieDB-logo" transform="translate(286.778304, 145.611876)">
                    <g id="Group" transform="translate(50.402937, 50.402937) rotate(-17.999992) translate(-50.402937, -50.402937) translate(10.402937, 10.402937)">
                        <polygon id="Path-4" fill="#000000" fill-rule="nonzero" points="77.2514381 -3.55271368e-15 -1.40238698e-15 10.960449 1.03551052 21.0916105 1.03551052 80 78.7960333 80 78.7960333 29.4924298 80 29.4924298 80 20.0529964 77.3098044 20.0529964 9.86088425 20.0529964 78.7960333 10.0000418"></polygon>
                        <polygon id="Path-5" fill="#FFFFFF" fill-rule="nonzero" points="8.18585747 11.0379869 14.4371374 10.0330023 18.7121733 18.1621379 12.4528338 19.1758594"></polygon>
                        <polygon id="Path-8" fill="#FFFFFF" fill-rule="nonzero" points="45.9288482 4.85834766 52.2444741 4.00597655 56.455164 9.91038498 50.2893063 10.8631194"></polygon>
                        <polygon id="Path-9" fill="#FFFFFF" fill-rule="nonzero" points="65.5323581 2.30582533 71.9436358 1.17903484 76.0586739 9.13727442 69.7403604 10.321892"></polygon>
                        <polygon id="Path-10" fill="#FFFFFF" fill-rule="nonzero" points="12.279491 19.4440142 19.1719442 19.4440142 15.5163204 28.5868714 8.64562842 28.5868714"></polygon>
                        <polygon id="Path-11" fill="#FFFFFF" fill-rule="nonzero" points="28.0482867 27.7322896 34.9558017 28.0246464 38.5746025 19.1997153 31.7989183 18.8817893"></polygon>
                        <polygon id="Path-12" fill="#FFFFFF" fill-rule="nonzero" points="47.0492417 29.7061408 53.8896505 29.7061408 57.5755575 20.9376561 50.8860972 20.5632836"></polygon>
                        <polygon id="Path-13" fill="#FFFFFF" fill-rule="nonzero" points="70.1903543 20.0010587 66.4519 28.8671276 73.2547539 29.1439159 76.9782158 20.5366556"></polygon>
                        <line x1="4.21052631" y1="40" x2="75.7894737" y2="40" id="Path-14" stroke="#FFFFFF" stroke-width="2.00000092"></line>
                        <line x1="4.26859412" y1="51.6547312" x2="75.8475415" y2="51.6547312" id="Path-15" stroke="#FFFFFF" stroke-width="2.00000092"></line>
                        <line x1="4.32666194" y1="63.3094624" x2="75.9056093" y2="63.3094624" id="Path-16" stroke="#FFFFFF" stroke-width="2.00000092"></line>
                        <line x1="25.0765301" y1="75.1637488" x2="25.0765301" y2="63.7351774" id="Path-17" stroke="#FFFFFF" stroke-width="2.00000092"></line>
                        <line x1="55.213809" y1="74.5384786" x2="55.213809" y2="63.1099072" id="Path-18" stroke="#FFFFFF" stroke-width="2.00000092"></line>
                        <polygon id="Path-6" fill="#FFFFFF" fill-rule="nonzero" points="28.5927737 5.83883805 32.5159233 11.8614792 39.1190895 11.1147854 35.1164452 5.00433632"></polygon>
                    </g>
                </g>
                <g id="TheMovieDBbg1" transform="translate(112.367188, 150.351562)" fill-rule="nonzero">
                    <g id="The" transform="translate(0.000000, 0.000000)" fill="#F3923D" stroke="#ED3833" stroke-width="2">
                        <g id="path-1-link">
                            <path d="M14.984374,53.648438 L14.984374,7.628907 L22.230468,7.628907 L22.230468,0 L0,0 L0,7.628907 L7.246093,7.628907 L7.246093,53.648438 L14.984374,53.648438 Z M34.890624,53.648438 L34.890624,39.457032 L41.644531,39.457032 L41.644531,53.648438 L49.382812,53.648438 L49.382812,0 L41.644531,0 L41.644531,31.800782 L34.890624,31.800782 L34.890624,0 L27.152343,0 L27.152343,53.648438 L34.890624,53.648438 Z M76.5625,53.648438 L76.5625,46.019532 L64.230468,46.019532 L64.230468,39.429688 L74.839843,39.429688 L74.839843,31.773438 L64.230468,31.773438 L64.230468,7.628907 L76.5625,7.628907 L76.5625,0 L56.492187,0 L56.492187,53.648438 L76.5625,53.648438 Z" id="path-1"></path>
                        </g>
                    </g>
                    <g id="MovieDB" transform="translate(23.187500, 63.152344)">
                        <g id="path-2-link" fill="#000000">
                            <path d="M7.464843,54.523438 L7.464843,16.734375 L14.300781,28.382813 L21.136718,16.734375 L21.136718,54.523438 L28.601562,54.523438 L28.601562,0.875 L22.503906,0.875 L14.300781,14.710938 L6.097656,0.875 L-5.68434189e-14,0.875 L-5.68434189e-14,54.523438 L7.464843,54.523438 Z M46.265624,55.371094 C53.684895,55.352865 57.394531,51.588542 57.394531,44.078125 L57.394531,44.078125 L57.394531,11.265625 C57.394531,3.755209 53.684895,-2.84217094e-14 46.265624,-2.84217094e-14 C38.864583,-2.84217094e-14 35.164062,3.755209 35.164062,11.265625 L35.164062,11.265625 L35.164062,44.078125 C35.164062,51.606771 38.864583,55.371094 46.265624,55.371094 Z M46.265624,47.714844 C44.023437,47.714844 42.902343,46.502604 42.902343,44.078125 L42.902343,44.078125 L42.902343,11.265625 C42.902343,8.841146 44.014322,7.628906 46.238281,7.628906 L46.238281,7.628906 L46.292968,7.628906 C48.535156,7.647136 49.65625,8.859375 49.65625,11.265625 L49.65625,11.265625 L49.65625,44.078125 C49.65625,46.502604 48.526041,47.714844 46.265624,47.714844 Z M80.089843,54.496094 L88.046874,0.847656 L80.226562,0.847656 L74.757812,44.925782 L69.316406,0.847656 L61.496093,0.847656 L69.480468,54.496094 L80.089843,54.496094 Z M100.570312,54.496094 L100.570312,0.847656 L92.832031,0.847656 L92.832031,54.496094 L100.570312,54.496094 Z M127.886718,54.496094 L127.886718,46.867188 L115.554687,46.867188 L115.554687,40.277344 L126.164062,40.277344 L126.164062,32.621094 L115.554687,32.621094 L115.554687,8.476563 L127.886718,8.476563 L127.886718,0.847656 L107.816406,0.847656 L107.816406,54.496094 L127.886718,54.496094 Z M145.058593,54.496094 C152.259114,54.477865 155.859374,50.722656 155.859374,43.230469 L155.859374,43.230469 L155.859374,12.140625 C155.859374,4.630209 152.423177,0.865886 145.550781,0.847656 L145.550781,0.847656 L133.628906,0.847656 L133.628906,54.496094 L145.058593,54.496094 Z M144.757812,46.867188 L141.367187,46.867188 L141.367187,8.476563 L144.757812,8.476563 C147,8.476563 148.121093,9.697917 148.121093,12.140625 L148.121093,12.140625 L148.121093,43.230469 C148.121093,45.654948 147,46.867188 144.757812,46.867188 L144.757812,46.867188 Z M173.851562,54.496094 C181.052083,54.477865 184.652343,50.722656 184.652343,43.230469 C184.652343,39.71224 183.239583,37.223959 180.414062,35.765625 C183.239583,34.307292 184.652343,31.819011 184.652343,28.300782 L184.652343,28.300782 L184.652343,12.140625 C184.652343,4.630209 181.216145,0.865886 174.34375,0.847656 L174.34375,0.847656 L162.421874,0.847656 L162.421874,54.496094 L173.851562,54.496094 Z M172.59375,31.9375 L170.160156,31.9375 L170.160156,8.476563 L173.550781,8.476563 C175.792968,8.476563 176.914062,9.697917 176.914062,12.140625 L176.914062,12.140625 L176.914062,28.300782 C176.914062,30.014323 176.212239,31.153646 174.808593,31.71875 C174.407552,31.864584 173.66927,31.9375 172.59375,31.9375 L172.59375,31.9375 Z M173.550781,46.867188 L170.160156,46.867188 L170.160156,39.59375 L172.59375,39.59375 C173.66927,39.59375 174.407552,39.675782 174.808593,39.839844 C176.212239,40.386719 176.914062,41.516927 176.914062,43.230469 C176.914062,45.654948 175.792968,46.867188 173.550781,46.867188 L173.550781,46.867188 Z" id="path-2"></path>
                        </g>
                        <g id="path-2-link" fill="#F3923D" stroke="#ED3833" stroke-width="2">
                            <path d="M7.464843,54.523438 L7.464843,16.734375 L14.300781,28.382813 L21.136718,16.734375 L21.136718,54.523438 L28.601562,54.523438 L28.601562,0.875 L22.503906,0.875 L14.300781,14.710938 L6.097656,0.875 L-5.68434189e-14,0.875 L-5.68434189e-14,54.523438 L7.464843,54.523438 Z M46.265624,55.371094 C53.684895,55.352865 57.394531,51.588542 57.394531,44.078125 L57.394531,44.078125 L57.394531,11.265625 C57.394531,3.755209 53.684895,-2.84217094e-14 46.265624,-2.84217094e-14 C38.864583,-2.84217094e-14 35.164062,3.755209 35.164062,11.265625 L35.164062,11.265625 L35.164062,44.078125 C35.164062,51.606771 38.864583,55.371094 46.265624,55.371094 Z M46.265624,47.714844 C44.023437,47.714844 42.902343,46.502604 42.902343,44.078125 L42.902343,44.078125 L42.902343,11.265625 C42.902343,8.841146 44.014322,7.628906 46.238281,7.628906 L46.238281,7.628906 L46.292968,7.628906 C48.535156,7.647136 49.65625,8.859375 49.65625,11.265625 L49.65625,11.265625 L49.65625,44.078125 C49.65625,46.502604 48.526041,47.714844 46.265624,47.714844 Z M80.089843,54.496094 L88.046874,0.847656 L80.226562,0.847656 L74.757812,44.925782 L69.316406,0.847656 L61.496093,0.847656 L69.480468,54.496094 L80.089843,54.496094 Z M100.570312,54.496094 L100.570312,0.847656 L92.832031,0.847656 L92.832031,54.496094 L100.570312,54.496094 Z M127.886718,54.496094 L127.886718,46.867188 L115.554687,46.867188 L115.554687,40.277344 L126.164062,40.277344 L126.164062,32.621094 L115.554687,32.621094 L115.554687,8.476563 L127.886718,8.476563 L127.886718,0.847656 L107.816406,0.847656 L107.816406,54.496094 L127.886718,54.496094 Z M145.058593,54.496094 C152.259114,54.477865 155.859374,50.722656 155.859374,43.230469 L155.859374,43.230469 L155.859374,12.140625 C155.859374,4.630209 152.423177,0.865886 145.550781,0.847656 L145.550781,0.847656 L133.628906,0.847656 L133.628906,54.496094 L145.058593,54.496094 Z M144.757812,46.867188 L141.367187,46.867188 L141.367187,8.476563 L144.757812,8.476563 C147,8.476563 148.121093,9.697917 148.121093,12.140625 L148.121093,12.140625 L148.121093,43.230469 C148.121093,45.654948 147,46.867188 144.757812,46.867188 L144.757812,46.867188 Z M173.851562,54.496094 C181.052083,54.477865 184.652343,50.722656 184.652343,43.230469 C184.652343,39.71224 183.239583,37.223959 180.414062,35.765625 C183.239583,34.307292 184.652343,31.819011 184.652343,28.300782 L184.652343,28.300782 L184.652343,12.140625 C184.652343,4.630209 181.216145,0.865886 174.34375,0.847656 L174.34375,0.847656 L162.421874,0.847656 L162.421874,54.496094 L173.851562,54.496094 Z M172.59375,31.9375 L170.160156,31.9375 L170.160156,8.476563 L173.550781,8.476563 C175.792968,8.476563 176.914062,9.697917 176.914062,12.140625 L176.914062,12.140625 L176.914062,28.300782 C176.914062,30.014323 176.212239,31.153646 174.808593,31.71875 C174.407552,31.864584 173.66927,31.9375 172.59375,31.9375 L172.59375,31.9375 Z M173.550781,46.867188 L170.160156,46.867188 L170.160156,39.59375 L172.59375,39.59375 C173.66927,39.59375 174.407552,39.675782 174.808593,39.839844 C176.212239,40.386719 176.914062,41.516927 176.914062,43.230469 C176.914062,45.654948 175.792968,46.867188 173.550781,46.867188 L173.550781,46.867188 Z" id="path-2"></path>
                        </g>
                    </g>
                </g>
            </g>
        </g>
    </g>
</svg>