<?xml version="1.0" encoding="UTF-8"?>
<svg width="1646px" height="1489px" viewBox="0 0 1646 1489" version="1.1" xmlns="http://www.w3.org/2000/svg" xmlns:xlink="http://www.w3.org/1999/xlink">
    <title>Group 5</title>
    <defs>
        <linearGradient x1="50%" y1="-10.9670159%" x2="66.2145359%" y2="89.1102004%" id="linearGradient-1">
            <stop stop-color="#48B0C8" offset="0%"></stop>
            <stop stop-color="#6CF8F7" offset="100%"></stop>
            <stop stop-color="#6CF8F7" offset="100%"></stop>
        </linearGradient>
    </defs>
    <g id="Page-1" stroke="none" stroke-width="1" fill="none" fill-rule="evenodd">
        <g id="Desktop-HD-Copy-6" transform="translate(527.000000, -2345.000000)">
            <g id="Group-5" transform="translate(-526.486772, 2345.032279)">
                <rect id="Rectangle" fill="#FFFFFF" x="895.486772" y="590.967721" width="280" height="16" rx="8"></rect>
                <path d="M471.920515,475.374511 C475.011291,284.744402 630.506959,131.162401 821.873625,131.162401 C1013.24029,131.162401 1168.73596,284.744402 1171.82673,475.374511 L1171.87362,481.162401 L1171.87362,1281.1624 L471.873625,1281.1624 L471.873625,481.162401 L471.920515,475.374511 Z" id="Combined-Shape" fill="url(#linearGradient-1)" transform="translate(821.873625, 706.162401) rotate(59.000000) translate(-821.873625, -706.162401) "></path>
                <g id="Group-4" transform="translate(0.000000, -0.000000)">
                    <path d="M822.5,59 C1071.55005,59 1273.91655,241.981984 1277.93898,469.104143 L1278,475.965 L1278.25271,475.965646 L1278.25271,1428.96565 L367.252707,1428.96565 L367.252,476 L367,476 L367.061024,469.104143 C371.083449,241.981984 573.449954,59 822.5,59 Z" id="Combined-Shape-Copy-2" fill="#48B0C8" opacity="0.0384947311" transform="translate(822.626354, 743.982823) rotate(59.000000) translate(-822.626354, -743.982823) "></path>
                    <g id="undraw_remote_design_team_0hp4" opacity="0.704805596" transform="translate(951.651751, 628.915162) rotate(-1.000000) translate(-951.651751, -628.915162) translate(712.151751, 455.415162)" fill-rule="nonzero">
                        <path d="M458.225,-2.27373675e-13 L12.775,-2.27373675e-13 C10.6904381,-2.27373675e-13 9,1.95674522 9,4.36970339 L9,270.630297 C9,273.043255 10.6904381,275 12.775,275 L458.225,275 C459.423287,274.994488 460.548747,274.333385 461.2601,273.217161 C461.461995,272.912768 461.623179,272.574948 461.738242,272.215042 C461.912833,271.711232 462,271.173126 462,270.630297 L462,4.36970339 C462,1.95675526 460.309553,-2.27373675e-13 458.225,-2.27373675e-13 L458.225,-2.27373675e-13 Z M460.49,270.630297 C460.49,272.077383 459.475142,273.252119 458.225,273.252119 L12.775,273.252119 C11.5248577,273.252119 10.51,272.077383 10.51,270.630297 L10.51,4.36970339 C10.51,2.92261176 11.5248532,1.74788136 12.775,1.74788136 L458.225,1.74788136 C459.475147,1.74788136 460.49,2.92261176 460.49,4.36970339 L460.49,270.630297 Z" id="Shape" fill="#E6E6E6"></path>
                        <path d="M104.781215,85.0002759 C103.792728,85.0184064 103,85.908399 103,87.0000396 C103,88.0916803 103.792728,88.9816728 104.781215,88.9998034 L190.163559,88.9998034 C191.162022,89.0151058 191.983361,88.1352474 192,87.0327847 C192.016141,85.930322 191.221399,85.0211696 190.22302,85.0002759 C190.203196,84.999908 190.183376,84.999908 190.163559,85.0002759 L104.781215,85.0002759 Z" id="a7fa35fd-6343-4c7d-bffa-edf3207f3b92-2168" fill="#E6E6E6"></path>
                        <path d="M103.778646,66.0002759 C102.791584,66.0184064 102,66.908399 102,68.0000396 C102,69.0916803 102.791584,69.9816728 103.778646,69.9998034 L128.166208,69.9998034 C129.163231,70.0151058 129.983385,69.1352474 130,68.0327847 C130.016118,66.930322 129.222523,66.0211696 128.225583,66.0002759 C128.205788,65.999908 128.185997,65.999908 128.166208,66.0002759 L103.778646,66.0002759 Z" id="ab6fdd8c-2729-46a7-820c-8bc436468813-2169" fill="#E6E6E6"></path>
                        <path d="M104.781215,105.000276 C103.792728,105.018406 103,105.908399 103,107.00004 C103,108.09168 103.792728,108.981673 104.781215,108.999803 L190.163559,108.999803 C191.162022,109.015106 191.983361,108.135247 192,107.032785 C192.016141,105.930322 191.221399,105.02117 190.22302,105.000276 C190.203196,104.999908 190.183376,104.999908 190.163559,105.000276 L104.781215,105.000276 Z" id="a01fe1c8-ee6f-45d9-a685-f0d827ea9125-2170" fill="#E6E6E6"></path>
                        <path d="M364.218969,85.0002759 C365.207354,85.0184057 366,85.9083617 366,86.9999576 C366,88.0915536 365.207354,88.9815096 364.218969,88.9996394 L278.845431,88.9996394 C278.197405,89.0132019 277.592216,88.6433302 277.258506,88.0297636 C276.924796,87.416197 276.913442,86.65248 277.228735,86.0271484 C277.544028,85.4018168 278.137897,85.0102089 278.785976,85.0002759 C278.805795,84.999908 278.825613,84.999908 278.845431,85.0002759 L364.218969,85.0002759 Z" id="a656137b-e162-470a-b235-9e9e70a6b83f-2171" fill="#E6E6E6"></path>
                        <path d="M365.221354,66.0002759 C366.208416,66.0184064 367,66.908399 367,68.0000396 C367,69.0916803 366.208416,69.9816728 365.221354,69.9998034 L340.833792,69.9998034 C339.836769,70.0151058 339.016615,69.1352474 339,68.0327847 C338.983882,66.930322 339.777477,66.0211696 340.774417,66.0002759 C340.794208,65.999908 340.814,65.999908 340.833792,66.0002759 L365.221354,66.0002759 Z" id="ab51dad3-2e04-4951-ae1a-30de5d5a2f94-2172" fill="#E6E6E6"></path>
                        <path d="M364.218969,105.000276 C365.207354,105.018406 366,105.908362 366,106.999958 C366,108.091554 365.207354,108.98151 364.218969,108.999639 L278.845431,108.999639 C278.197405,109.013202 277.592216,108.64333 277.258506,108.029764 C276.924796,107.416197 276.913442,106.65248 277.228735,106.027148 C277.544028,105.401817 278.137897,105.010209 278.785976,105.000276 C278.805795,104.999908 278.825613,104.999908 278.845431,105.000276 L364.218969,105.000276 Z" id="bf1d7626-f896-438d-a0f7-98819d5cb6e1-2173" fill="#E6E6E6"></path>
                        <path d="M82,113.531717 C82.0054854,117.444827 81.2310703,121.306426 79.7372315,124.814802 C79.5686753,125.217769 79.3899036,125.608885 79.2009164,126 L40.8058584,126 C40.6168711,125.608885 40.4380994,125.217769 40.2695432,124.814802 C36.2559688,115.373185 37.6505416,104.041248 43.7811931,96.2800448 C49.9118446,88.5188417 59.5207043,85.9207954 67.9770984,89.7379487 C76.4334926,93.5551021 82.0023609,103.004262 82,113.531717 L82,113.531717 Z" id="Path" fill="#2F2E41"></path>
                        <ellipse id="Oval" fill="#FFFFFF" cx="59.5" cy="107" rx="7.5" ry="9"></ellipse>
                        <ellipse id="Oval" fill="#3F3D56" cx="60.5" cy="108" rx="2.5" ry="3"></ellipse>
                        <path d="M38.3207938,91.0873665 C36.5687015,81.9647126 42.1694585,72.7466778 50.8304318,70.4982726 C59.491405,68.2498674 67.9328755,73.8225778 69.6849627,82.9452259 C71.43705,92.067874 65.6971173,95.4324743 57.036139,97.6808385 C48.3751607,99.9292027 40.0729163,100.21005 38.3207938,91.0873665 Z" id="Path" fill="#148FE8"></path>
                        <path d="M89.4626866,48 L26.5373134,48 C25.1362039,48 24,49.3032928 24,50.9104478 L24,123.089552 C24,124.696707 25.1362039,126 26.5373134,126 L89.4626866,126 C90.8637961,126 92,124.696707 92,123.089552 L92,50.9104478 C92,49.3032928 90.8637961,48 89.4626866,48 L89.4626866,48 Z M90.9850746,123.089552 C90.9826138,124.052818 90.3024568,124.832998 89.4626866,124.835821 L26.5373134,124.835821 C25.6975432,124.832998 25.0173862,124.052818 25.0149254,123.089552 L25.0149254,50.9104478 C25.0173752,49.9471766 25.6975386,49.1669892 26.5373134,49.1641791 L89.4626866,49.1641791 C90.3024626,49.166986 90.9826276,49.9471753 90.9850746,50.9104478 L90.9850746,123.089552 Z" id="Shape" fill="#3F3D56"></path>
                        <path d="M444.462687,48 L381.537313,48 C380.136204,48 379,49.3032928 379,50.9104478 L379,123.089552 C379,124.696707 380.136204,126 381.537313,126 L444.462687,126 C445.863796,126 447,124.696707 447,123.089552 L447,50.9104478 C447,49.3032928 445.863796,48 444.462687,48 L444.462687,48 Z M445.985075,123.089552 C445.982614,124.052818 445.302457,124.832998 444.462687,124.835821 L381.537313,124.835821 C380.697543,124.832998 380.017386,124.052818 380.014925,123.089552 L380.014925,50.9104478 C380.017375,49.9471766 380.697539,49.1669892 381.537313,49.1641791 L444.462687,49.1641791 C445.302463,49.166986 445.982628,49.9471753 445.985075,50.9104478 L445.985075,123.089552 Z" id="Shape" fill="#3F3D56"></path>
                        <rect id="Rectangle" fill="#E6E6E6" x="11" y="22" width="451" height="1"></rect>
                        <ellipse id="Oval" fill="#BF616A" cx="21.5" cy="13" rx="4.5" ry="5"></ellipse>
                        <ellipse id="Oval" fill="#EBCB8B" cx="35.5" cy="13" rx="4.5" ry="5"></ellipse>
                        <ellipse id="Oval" fill="#8FBCBB" cx="50.5" cy="13" rx="4.5" ry="5"></ellipse>
                        <ellipse id="Oval" fill="#2F2E41" transform="translate(81.515642, 128.210660) rotate(-50.959460) translate(-81.515642, -128.210660) " cx="81.5156425" cy="128.21066" rx="3.72910326" ry="11.2382315"></ellipse>
                        <ellipse id="Oval" fill="#2F2E41" transform="translate(36.743195, 106.632514) rotate(-50.959460) translate(-36.743195, -106.632514) " cx="36.7431947" cy="106.632514" rx="3.72910326" ry="11.2382315"></ellipse>
                        <path d="M201.844001,168 L84.1559994,168 C81.8617554,168 80.0025057,166.443859 80,164.526209 L80,134.473791 C80.0025057,132.556141 81.8617554,131 84.1559994,131 L201.844001,131 C204.138245,131 205.997494,132.556141 206,134.473791 L206,164.52562 C205.997995,166.443276 204.138245,167.997645 201.844001,168 Z M84.1559994,132.388339 C82.7793528,132.388339 81.663803,133.322141 81.6622995,134.472614 L81.6622995,164.524442 C81.6622995,165.674915 82.7793528,166.60754 84.1559994,166.608717 L201.844001,166.608717 C203.220647,166.608717 204.336197,165.674915 204.3377,164.524442 L204.3377,134.473791 C204.3377,133.323319 203.220647,132.390694 201.844001,132.389517 L84.1559994,132.388339 Z" id="b7f0d0fe-5878-4d7b-9169-ef767dd243e7-2175" fill="#3F3D56"></path>
                        <ellipse id="Oval" fill="#148FE8" cx="101" cy="150" rx="10" ry="11"></ellipse>
                        <path d="M121.79338,142.000276 C120.798142,142.018406 120,142.908399 120,144.00004 C120,145.09168 120.798142,145.981673 121.79338,145.999803 L190.151017,145.999803 C191.156299,146.015106 191.983247,145.135247 192,144.032785 C192.016251,142.930322 191.216082,142.02117 190.210884,142.000276 C190.190925,141.999908 190.170969,141.999908 190.151017,142.000276 L121.79338,142.000276 Z" id="b9068c95-bea0-463e-9980-b1b2ab5c3777-2176" fill="#3F3D56"></path>
                        <path d="M121.79338,153.000276 C120.798142,153.018406 120,153.908399 120,155.00004 C120,156.09168 120.798142,156.981673 121.79338,156.999803 L190.151017,156.999803 C191.156299,157.015106 191.983247,156.135247 192,155.032785 C192.016251,153.930322 191.216082,153.02117 190.210884,153.000276 C190.190925,152.999908 190.170969,152.999908 190.151017,153.000276 L121.79338,153.000276 Z" id="b4ef2f28-17ab-4899-adbe-de2d22554602-2177" fill="#3F3D56"></path>
                        <path d="M250.262032,137 C249.013312,137.001583 248,138.174279 248,139.621359 L248,194.378641 C248,195.825723 249.013311,196.99842 250.262032,197 L433.737968,197 C434.98669,196.998424 436,195.825724 436,194.378641 L436,139.621359 C436,138.174277 434.986689,137.00158 433.737968,137 L250.262032,137 Z" id="Path" fill="#148FE8"></path>
                        <path d="M433.230263,347 L249.769737,347 C247.68871,346.997359 246.002272,345.036275 246,342.616343 L246,140.383657 C246.002272,137.963725 247.68871,136.002641 249.769737,136 L433.230263,136 C435.31129,136.002641 436.997728,137.963725 437,140.383657 L437,342.616343 C436.997731,345.036276 435.311291,346.997362 433.230263,347 L433.230263,347 Z M249.769737,137.753463 C248.521122,137.753463 247.507895,138.931699 247.507895,140.383657 L247.507895,342.616343 C247.507895,344.068302 248.521121,345.246537 249.769737,345.246537 L433.230263,345.246537 C434.47888,345.246537 435.492105,344.068304 435.492105,342.616343 L435.492105,140.383657 C435.492105,138.931698 434.478879,137.753463 433.230263,137.753463 L249.769737,137.753463 Z" id="Shape" fill="#3F3D56"></path>
                        <path d="M383.748796,221 L328.568326,221 L328.568326,222.164527 L383.748796,222.164527 C389.406032,222.164527 393.992128,227.463449 393.992128,234 C393.992128,240.536551 389.406032,245.835473 383.748796,245.835473 L300.251204,245.835473 C294.593968,245.835473 290.007872,240.536551 290.007872,234 C290.007872,227.463449 294.593968,222.164527 300.251204,222.164527 L303.371524,222.164527 L303.371524,221 L300.251204,221 C294.037336,221 289,226.820298 289,234 C289,241.179702 294.037336,247 300.251204,247 L383.748796,247 C389.962664,247 395,241.179702 395,234 C395,226.820298 389.962664,221 383.748796,221 Z" id="Path" fill="#E6E6E6"></path>
                        <path d="M383.748796,260 L328.568326,260 L328.568326,261.164527 L383.748796,261.164527 C389.406032,261.164527 393.992128,266.463449 393.992128,273 C393.992128,279.536551 389.406032,284.835473 383.748796,284.835473 L300.251204,284.835473 C294.593968,284.835473 290.007872,279.536551 290.007872,273 C290.007872,266.463449 294.593968,261.164527 300.251204,261.164527 L303.371524,261.164527 L303.371524,260 L300.251204,260 C294.037336,260 289,265.820298 289,273 C289,280.179702 294.037336,286 300.251204,286 L383.748796,286 C389.962664,286 395,280.179702 395,273 C395,265.820298 389.962664,260 383.748796,260 Z" id="Path" fill="#E6E6E6"></path>
                        <path d="M383.748796,301 L328.568326,301 L328.568326,302.164527 L383.748796,302.164527 C389.406032,302.164527 393.992128,307.463449 393.992128,314 C393.992128,320.536551 389.406032,325.835473 383.748796,325.835473 L300.251204,325.835473 C294.593968,325.835473 290.007872,320.536551 290.007872,314 C290.007872,307.463449 294.593968,302.164527 300.251204,302.164527 L303.371524,302.164527 L303.371524,301 L300.251204,301 C294.037336,301 289,306.820298 289,314 C289,321.179702 294.037336,327 300.251204,327 L383.748796,327 C389.962664,327 395,321.179702 395,314 C395,306.820298 389.962664,301 383.748796,301 Z" id="Path" fill="#E6E6E6"></path>
                        <path d="M308.926601,216.000555 C307.302553,216.036481 306,217.816545 306,220.000038 C306,222.183531 307.302553,223.963595 308.926601,223.999521 L321.97887,223.999521 C323.62075,224.033322 324.972634,222.272762 324.999591,220.065631 C325.026548,217.858501 323.718386,216.03923 322.076565,216.000555 C322.043999,215.999815 322.011433,215.999815 321.97887,216.000555 L308.926601,216.000555 Z" id="a8b0d479-597c-4010-af9e-a52c1cd74b0b-2178" fill="#3F3D56"></path>
                        <path d="M308.926601,258.000555 C307.302553,258.036481 306,259.816545 306,262.000038 C306,264.183531 307.302553,265.963595 308.926601,265.999521 L321.97887,265.999521 C323.62075,266.033322 324.972634,264.272762 324.999591,262.065631 C325.026548,259.858501 323.718386,258.03923 322.076565,258.000555 C322.043999,257.999815 322.011433,257.999815 321.97887,258.000555 L308.926601,258.000555 Z" id="a7546b0b-85a8-4a20-88fc-d2fe18f994f7-2179" fill="#3F3D56"></path>
                        <path d="M308.92559,297.000555 C307.302103,297.03648 306,298.816514 306,300.999969 C306,303.183425 307.302103,304.963458 308.92559,304.999384 L321.973353,304.999384 C323.03667,305.024439 324.029039,304.284205 324.576162,303.05788 C325.123286,301.831554 325.141915,300.305731 324.625024,299.055914 C324.108133,297.806096 323.13437,297.022453 322.071015,297.000555 C322.03846,296.999815 322.005906,296.999815 321.973353,297.000555 L308.92559,297.000555 Z" id="bacde4d6-97e6-4618-95f8-28bf875e16b4-2180" fill="#3F3D56"></path>
                        <path d="M303.979493,230.000555 C302.326093,230.036481 301,231.816545 301,234.000038 C301,236.183531 302.326093,237.963595 303.979493,237.999521 L379.92427,237.999521 C381.595823,238.033322 382.972139,236.272762 383,234.065631 C383.027027,231.858501 381.695224,230.03923 380.023731,230.000555 C379.990579,229.999815 379.957425,229.999815 379.92427,230.000555 L303.979493,230.000555 Z" id="fd9dd827-52d7-4fa1-83f4-c293a523bb58-2181" fill="#E6E6E6"></path>
                        <path d="M303.979493,269.000555 C302.326093,269.036481 301,270.816545 301,273.000038 C301,275.183531 302.326093,276.963595 303.979493,276.999521 L379.92427,276.999521 C381.595823,277.033322 382.972139,275.272762 383,273.065631 C383.027027,270.858501 381.695224,269.03923 380.023731,269.000555 C379.990579,268.999815 379.957425,268.999815 379.92427,269.000555 L303.979493,269.000555 Z" id="bfc71887-2ccd-4bb6-bfbb-8f0c239a6e0a-2182" fill="#E6E6E6"></path>
                        <path d="M303.979493,310.000555 C302.326093,310.036481 301,311.816545 301,314.000038 C301,316.183531 302.326093,317.963595 303.979493,317.999521 L379.92427,317.999521 C381.595823,318.033322 382.972139,316.272762 383,314.065631 C383.027027,311.858501 381.695224,310.03923 380.023731,310.000555 C379.990579,309.999815 379.957425,309.999815 379.92427,310.000555 L303.979493,310.000555 Z" id="e6544ee3-e65e-4949-b2cc-84e2c4255103-2183" fill="#E6E6E6"></path>
                        <path d="M286,167.000064 C286,174.732015 280.403471,181 273.499943,181 C266.596415,181 261,174.732015 261,167.000064 C261,159.268113 266.596415,153 273.499943,153 C276.819466,152.984225 280.007132,154.454107 282.354411,157.083059 C284.70169,159.712012 286.014085,163.282198 286,167.000064 L286,167.000064 Z" id="Path" fill="#FFFFFF"></path>
                        <path d="M294.97925,156.000555 C293.325985,156.03648 292,157.816514 292,159.999969 C292,162.183425 293.325985,163.963458 294.97925,163.999384 L370.91784,163.999384 C372.00066,164.024439 373.01123,163.284205 373.568388,162.05788 C374.125547,160.831554 374.144518,159.305731 373.618147,158.055914 C373.091775,156.806096 372.100152,156.022453 371.017293,156.000555 C370.984144,155.999815 370.950993,155.999815 370.91784,156.000555 L294.97925,156.000555 Z" id="af09933a-d45c-4314-8237-a939141c4532-2184" fill="#FFFFFF"></path>
                        <path d="M294.958795,172.000555 C293.316881,172.03648 292,173.816514 292,175.999969 C292,178.183425 293.316881,179.963458 294.958795,179.999384 L418.939002,179.999384 C420.014387,180.024439 421.018019,179.284205 421.571352,178.05788 C422.124685,176.831554 422.143526,175.305731 421.620768,174.055914 C421.098011,172.806096 420.113196,172.022453 419.037772,172.000555 C419.004851,171.999815 418.971927,171.999815 418.939002,172.000555 L294.958795,172.000555 Z" id="b4790680-994e-4faf-b8ff-fb3e3aecf554-2185" fill="#FFFFFF"></path>
                        <path d="M478.931126,235.463727 C478.62587,248.596931 476.726357,261.614948 473.288505,274.134541 C473.212844,274.421078 473.126999,274.707615 473.046246,275 L452,275 C452.020188,274.742701 452.045424,274.450317 452.065612,274.134541 C452.070603,274.03513 452.080708,273.935719 452.08576,273.830461 L458.551053,273.830461 C459.804607,273.828268 460.820341,272.651405 460.822233,271.198998 L460.822233,142 C461.316846,143.251407 461.8266,144.549595 462.336354,145.900413 C470.356164,167.010561 479.905236,199.968206 478.931126,235.463727 Z" id="Path" fill="#E6E6E6"></path>
                        <path d="M8.5363629,274.563206 C8.62749837,274.709525 8.72250778,274.855851 8.81945932,275 L17,275 C16.93795,274.875509 16.86621,274.72919 16.7828327,274.563206 C15.4313582,271.815762 11.4312523,263.601863 7.71809607,255.086528 C3.72766984,245.935673 0.0668685256,236.437566 0.375176464,233 C0.280187658,233.775307 -2.48092197,257.410262 8.5363629,274.563206 Z" id="Path" fill="#E6E6E6"></path>
                        <ellipse id="Oval" fill="#2F2E41" transform="translate(436.981864, 91.809292) rotate(-14.482220) translate(-436.981864, -91.809292) " cx="436.981864" cy="91.8092918" rx="10.6734388" ry="3.83484933"></ellipse>
                        <ellipse id="Oval" fill="#2F2E41" transform="translate(392.712474, 94.142086) rotate(-67.434100) translate(-392.712474, -94.142086) " cx="392.712474" cy="94.1420864" rx="12.0042629" ry="3.44781702"></ellipse>
                        <ellipse id="Oval" fill="#2F2E41" cx="416" cy="88.5" rx="21" ry="24.5"></ellipse>
                        <path d="M413,120.966358 L406.37798,121 C401.530699,115.785046 402.247938,111.598913 406.322848,108.033636 L412.944837,108 C409.891836,112.108093 409.078076,116.372255 413,120.966358 Z" id="Path" fill="#2F2E41"></path>
                        <ellipse id="Oval" fill="#2F2E41" transform="translate(408.173959, 122.350797) rotate(-30.266340) translate(-408.173959, -122.350797) " cx="408.173959" cy="122.350797" rx="5.56885414" ry="2.27569537"></ellipse>
                        <path d="M425,120.966358 L418.37798,121 C413.530699,115.785046 414.247938,111.598913 418.322848,108.033636 L424.944837,108 C421.891836,112.108093 421.078076,116.372255 425,120.966358 Z" id="Path" fill="#2F2E41"></path>
                        <ellipse id="Oval" fill="#2F2E41" transform="translate(419.744368, 122.350793) rotate(-30.266340) translate(-419.744368, -122.350793) " cx="419.744368" cy="122.350793" rx="5.56885414" ry="2.27569537"></ellipse>
                        <ellipse id="Oval" fill="#FFFFFF" cx="415.5" cy="82.5" rx="7.5" ry="8.5"></ellipse>
                        <ellipse id="Oval" fill="#3F3D56" cx="414.5" cy="85" rx="2.5" ry="3"></ellipse>
                        <path d="M435.702225,65.2982775 C437.363862,56.4709402 431.903647,47.5897899 423.506449,45.4616943 C415.109251,43.3335988 406.954968,48.7643833 405.293317,57.5917207 C403.631665,66.419058 409.204061,69.6413554 417.601243,71.7694858 C425.998426,73.8976162 434.040598,74.1256206 435.702225,65.2982775 Z" id="Path" fill="#148FE8"></path>
                        <path d="M419.999895,98.5711383 C420.011437,100.499262 419.068089,102.2874 417.525542,103.261327 C415.982996,104.235254 414.075872,104.246838 412.523258,103.291711 C410.970644,102.336584 410.008691,100.560019 410.000107,98.6318776 L410,98.6212895 C409.987221,95.6422823 412.223095,95.0140573 414.984491,95.0002291 C417.745886,94.9864009 419.987072,95.5921368 419.999895,98.5711383 Z" id="Path" fill="#FFFFFF"></path>
                        <path d="M283,178.158363 L283,178.186569 C278.315518,183.078502 270.93417,183.289342 266.015707,178.671706 C266.005236,178.502472 266,178.327597 266,178.158363 C266,173.100339 269.80558,169 274.5,169 C279.19442,169 283,173.100339 283,178.158363 L283,178.158363 Z" id="Path" fill="#2F2E41"></path>
                        <ellipse id="Oval" fill="#FFFFFF" cx="274" cy="175.5" rx="3" ry="3.5"></ellipse>
                        <circle id="Oval" fill="#3F3D56" cx="274" cy="175" r="1"></circle>
                        <path d="M265.120297,168.99865 C264.463265,165.538343 266.563547,162.041843 269.811415,161.189 C273.059283,160.336157 276.224829,162.449943 276.881861,165.910255 C277.538893,169.370568 275.386421,170.646797 272.138553,171.499628 C268.890685,172.352459 265.777344,172.458979 265.120297,168.99865 Z" id="Path" fill="#148FE8"></path>
                        <path d="M339.807373,135.902299 C338.635454,129.999362 341.303576,123.525781 345.795821,120.506199 C347.858916,119.119436 350.448744,118.395931 352.708551,119.633083 C353.597735,120.026499 354.252164,120.914811 354.445206,121.990392 C354.529094,123.164151 353.940359,124.264084 352.992961,124.70362 C352.064991,125.264184 350.95739,125.262838 350.030447,124.700019 C349.042632,123.930265 348.433429,122.662243 348.391274,121.288172 C348.171585,117.91979 350.41011,115.455017 352.992803,114.40137 C356.301855,113.051404 359.868736,113.682821 363.294639,113.774351 C366.577271,113.853994 369.857787,113.525414 373.079369,112.794304 C380.244064,111.170481 386.97706,107.625547 392.734288,102.445955 C393.50786,101.750684 392.421298,100.513532 391.655518,101.201794 C385.857472,106.371921 379.052331,109.830694 371.831561,111.277495 C368.126356,111.961314 364.366442,112.164841 360.621991,111.88428 C357.045449,111.68437 353.16537,111.67864 350.097304,114.133578 C347.599679,116.132064 346.11474,119.743176 347.194202,123.196958 C347.633927,124.7453 348.646898,125.988644 349.959465,126.591104 C351.194421,127.059157 352.540261,126.939555 353.698465,126.258827 C354.85442,125.668213 355.676536,124.448398 355.88759,123.010711 C356.098643,121.573024 355.670505,120.109079 354.747547,119.112527 C352.770115,116.988153 349.589499,116.844202 347.160354,117.847304 C341.565147,120.157804 337.672188,127.027023 338.021787,133.866629 C338.066341,134.709695 338.171525,135.547038 338.336256,136.370024 C338.555299,137.473342 340.026568,137.00638 339.807373,135.902276 L339.807373,135.902299 Z" id="Path" fill="#3F3D56"></path>
                    </g>
                    <rect id="Rectangle" fill="#FFFFFF" transform="translate(1124.486772, 245.967721) rotate(-33.000000) translate(-1124.486772, -245.967721) " x="1013.48677" y="237.967721" width="222" height="16" rx="8"></rect>
                    <rect id="Rectangle-Copy-5" fill="#FFFFFF" transform="translate(630.667314, 370.522615) rotate(-122.000000) translate(-630.667314, -370.522615) " x="567.667314" y="362.522615" width="126" height="16" rx="8"></rect>
                    <rect id="Rectangle-Copy-4" fill="#FFFFFF" x="1273.48677" y="663.967721" width="222" height="16" rx="8"></rect>
                </g>
            </g>
        </g>
    </g>
</svg>